<?xml version="1.0" encoding="utf-8"?>
<!-- Generator: Adobe Illustrator 27.9.0, SVG Export Plug-In . SVG Version: 6.00 Build 0)  -->
<svg version="1.1" xmlns="http://www.w3.org/2000/svg" xmlns:xlink="http://www.w3.org/1999/xlink" x="0px" y="0px"
	 viewBox="0 0 800 800" style="enable-background:new 0 0 800 800;" xml:space="preserve">
<style type="text/css">
	.st0{display:none;}
	.st1{display:inline;fill-rule:evenodd;clip-rule:evenodd;fill:#080341;}
	.st2{fill:none;stroke:#000000;stroke-width:10;stroke-miterlimit:10;}
	.st3{fill:none;stroke:#000000;stroke-width:10;stroke-linecap:round;stroke-linejoin:round;stroke-miterlimit:10;}
</style>
<g id="Layer_1" class="st0">
	<path class="st1" d="M125,175l-25,25v400l25,25h550l25-25V200l-25-25H125z M150,256.5V575h500V256.5L400,483.8L150,256.5z
		 M610.3,225H189.7L400,416.2L610.3,225z"/>
</g>
<g id="Layer_2">
	<path class="st2" d="M639.3,603.6h-474c-29.3,0-53-23.7-53-53V249.4c0-29.3,23.7-53,53-53h474c29.3,0,53,23.7,53,53v301.1
		C692.3,579.8,668.6,603.6,639.3,603.6z"/>
	<polyline class="st3" points="651,231.5 402.3,480.2 153.6,231.5 	"/>
	<line class="st3" x1="485.4" y1="407.1" x2="651" y2="572.7"/>
	<line class="st3" x1="153.6" y1="572.7" x2="324.1" y2="402.1"/>
</g>
</svg>
